<?xml version="1.0" standalone="no"?>
<!DOCTYPE svg PUBLIC "-//W3C//DTD SVG 20010904//EN"
 "http://www.w3.org/TR/2001/REC-SVG-20010904/DTD/svg10.dtd">
<svg version="1.0" xmlns="http://www.w3.org/2000/svg"
 width="1280.000000pt" height="1280.000000pt" viewBox="0 0 1280.000000 1280.000000"
 preserveAspectRatio="xMidYMid meet">
<metadata>
Created by potrace 1.16, written by Peter Selinger 2001-2019
</metadata>
<g transform="translate(0.000000,1280.000000) scale(0.100000,-0.100000)"
fill="#000000" stroke="none">
<path d="M3255 11213 c-479 -61 -893 -301 -1176 -682 -130 -175 -234 -397
-284 -604 -29 -122 -640 -4119 -656 -4291 -26 -280 34 -596 162 -866 86 -180
185 -317 338 -471 288 -287 615 -445 1013 -488 57 -7 325 -11 647 -11 l549 0
5 -782 c5 -828 9 -901 56 -1116 67 -297 188 -534 375 -730 205 -214 442 -344
771 -422 184 -44 289 -54 525 -54 235 0 273 6 446 73 169 65 365 224 468 379
27 41 342 670 701 1400 358 730 742 1510 853 1734 l200 408 156 0 156 0 0
3265 0 3265 -2637 -1 c-1451 -1 -2651 -4 -2668 -6z m4545 -3257 c0 -2385 -1
-2514 -17 -2519 -12 -3 -94 -160 -238 -453 -1108 -2266 -1677 -3410 -1712
-3446 -21 -22 -62 -51 -90 -65 -49 -23 -63 -25 -175 -24 -147 1 -302 23 -412
58 -312 98 -463 287 -527 665 -10 55 -14 363 -16 1230 l-4 1157 -972 3 -972 3
-74 23 c-282 87 -490 266 -612 526 -64 137 -83 229 -83 391 0 133 16 242 312
2173 171 1119 321 2066 333 2105 41 140 117 271 221 383 84 89 166 149 283
205 107 51 182 74 291 88 38 4 1058 9 2267 10 l2197 1 0 -2514z"/>
<path d="M8690 7956 l0 -3266 693 0 c424 0 725 4 777 11 278 34 519 123 745
274 432 288 703 744 754 1269 15 149 15 3268 1 3421 -49 515 -312 966 -737
1262 -93 64 -306 171 -418 208 -44 15 -132 39 -195 53 l-115 26 -752 3 -753 4
0 -3265z m1490 2485 c92 -24 242 -91 316 -142 182 -125 321 -325 387 -558 l22
-76 3 -1660 c2 -1190 0 -1682 -8 -1739 -50 -351 -298 -652 -630 -768 -126 -44
-175 -49 -507 -55 l-323 -6 0 2518 0 2517 328 -5 c292 -4 336 -7 412 -26z"/>
</g>
</svg>
